# xmcd
#
# Track frame offsets:
#	150
#	23490
#	46295
#	70502
#	92992
#	119160
#	139355
#	157132
#	177657
#	197975
#	228497
#	249462
#	275372
#
# Disc length: 3923 seconds
#
# Revision: 1
# Processed by: cddbd v1.5.1PL0 Copyright (c) Steve Scherf et al.
# Submitted via: CDex 1.50Beta5
#
DISCID=c20f510d
DTITLE=永井真理子 - You’re…
DYEAR=1998
DGENRE=
TTITLE0=うた
TTITLE1=あなたに負けないくらい
TTITLE2=海と貝殻
TTITLE3=がんばらなくていい
TTITLE4=boy
TTITLE5=愛をください
TTITLE6=nonfiction
TTITLE7=車が欲しい
TTITLE8=drops
TTITLE9=wanna be free
TTITLE10=引っ越しします
TTITLE11=私を探しにゆこう
TTITLE12=真夏のイブ
EXTD=
EXTT0=
EXTT1=
EXTT2=
EXTT3=
EXTT4=
EXTT5=
EXTT6=
EXTT7=
EXTT8=
EXTT9=
EXTT10=
EXTT11=
EXTT12=
PLAYORDER=
